<?xml version="1.0" standalone="no"?>
<!DOCTYPE svg PUBLIC "-//W3C//DTD SVG 20010904//EN"
 "http://www.w3.org/TR/2001/REC-SVG-20010904/DTD/svg10.dtd">
<svg version="1.0" xmlns="http://www.w3.org/2000/svg"
 width="100.000000pt" height="100.000000pt" viewBox="0 0 100.000000 100.000000"
 preserveAspectRatio="xMidYMid meet">
<metadata>
Created by potrace 1.11, written by Peter Selinger 2001-2013
</metadata>
<g transform="translate(0.000000,100.000000) scale(0.100000,-0.100000)"
fill="#000000" stroke="none">
<path d="M0 500 l0 -500 500 0 500 0 0 500 0 500 -500 0 -500 0 0 -500z m408
245 l3 -30 -51 3 c-27 2 -50 8 -50 13 0 5 -11 14 -25 21 -40 18 -18 29 53 26
66 -3 67 -3 70 -33z m205 7 c45 -26 77 -77 77 -123 0 -59 -19 -89 -73 -114
l-47 -22 68 -89 c79 -102 141 -161 184 -176 41 -14 18 -28 -48 -28 -41 0 -59
6 -93 30 -45 33 -120 124 -164 200 l-28 48 30 7 c17 3 44 22 61 41 25 29 30
43 30 87 0 34 -7 63 -20 84 -19 32 -66 63 -95 63 -8 0 -15 5 -15 11 0 17 95 4
133 -19z m-205 -87 c2 -18 -2 -20 -43 -17 -25 2 -45 8 -45 13 0 5 -10 14 -22
19 -17 7 -6 9 42 7 57 -2 65 -5 68 -22z m0 -70 c3 -18 -2 -20 -40 -17 -24 2
-47 9 -53 16 -5 7 -17 16 -25 19 -8 3 14 5 50 4 57 -2 65 -5 68 -22z m0 -70
c3 -18 -2 -20 -40 -17 -24 2 -47 9 -53 16 -5 7 -17 16 -25 19 -8 3 14 5 50 4
57 -2 65 -5 68 -22z m2 -163 c4 -98 8 -116 24 -128 11 -8 25 -14 32 -14 7 0
16 -4 19 -10 4 -6 -40 -10 -125 -10 -85 0 -129 4 -125 10 3 6 13 10 22 10 9 0
27 10 40 22 21 20 23 30 23 118 0 91 -1 98 -22 108 -19 9 -12 11 42 9 l65 -2
5 -113z"/>
</g>
</svg>
